<svg id="Capa_1" enable-background="new 0 0 512 512" height="512" viewBox="0 0 512 512" width="512" xmlns="http://www.w3.org/2000/svg"><path d="m348.37 270.63c-4.189 0-7.989-2.701-9.407-6.632-1.414-3.921-.169-8.454 3.063-11.096 3.283-2.684 8.017-2.984 11.621-.758 3.486 2.153 5.348 6.413 4.533 10.435-.936 4.618-5.091 8.051-9.81 8.051z"/><path d="m358.37 305.654c0-5.523-4.477-10-10-10-5.522 0-10 4.477-10 10v89.496h-63.36c-5.522 0-10 4.477-10 10v63.483h-232.559c-6.865 0-12.451-5.603-12.451-12.489v-400.289c0-6.886 5.586-12.489 12.451-12.489h293.468c6.865 0 12.451 5.603 12.451 12.489v159.386c0 5.523 4.478 10 10 10 5.523 0 10-4.477 10-10v-159.386c0-17.915-14.558-32.489-32.451-32.489h-293.468c-17.893.001-32.451 14.575-32.451 32.489v400.289c0 17.915 14.558 32.489 32.451 32.489h293.468c17.894 0 32.451-14.574 32.451-32.489zm-73.36 109.496h39.247l-39.247 39.313zm40.909 53.483h-26.796l39.247-39.313v26.824c0 6.887-5.586 12.489-12.451 12.489z"/><path d="m82.95 339.043c0 27.994 22.774 50.768 50.768 50.768s50.768-22.774 50.768-50.768v-120.844h3.828c5.522 0 10-4.477 10-10s-4.478-10-10-10h-109.192c-5.522 0-10 4.477-10 10s4.478 10 10 10h3.828zm81.536 0c0 16.965-13.803 30.768-30.768 30.768s-30.768-13.803-30.768-30.768v-62.841h61.536zm0-120.844v38.003h-61.536v-38.003z"/><path d="m260.301 106.652h-184.633c-5.522 0-10-4.477-10-10s4.478-10 10-10h184.633c5.522 0 10 4.477 10 10s-4.478 10-10 10z"/><path d="m260.301 152h-184.633c-5.522 0-10-4.477-10-10s4.478-10 10-10h184.633c5.522 0 10 4.477 10 10s-4.478 10-10 10z"/><path d="m282.702 269.81h-58.035c-5.523 0-10-4.477-10-10s4.477-10 10-10h58.035c5.523 0 10 4.477 10 10 0 5.522-4.477 10-10 10z"/><path d="m282.702 317.023h-58.035c-5.523 0-10-4.477-10-10s4.477-10 10-10h58.035c5.523 0 10 4.477 10 10s-4.477 10-10 10z"/><path d="m502 118.206h-28.718v-47.844c0-25.913-21.082-46.995-46.996-46.995-25.913 0-46.995 21.082-46.995 46.995v330.705c0 21.917 7.457 43.468 20.996 60.684l18.139 23.065c1.895 2.411 4.793 3.818 7.86 3.818s5.965-1.407 7.86-3.818l18.139-23.065c13.54-17.217 20.997-38.768 20.997-60.684v-262.861h18.718v121.604c0 5.523 4.478 10 10 10s10-4.477 10-10v-131.604c0-5.523-4.478-10-10-10zm-102.709-47.844c0-14.885 12.11-26.995 26.995-26.995 14.886 0 26.996 12.11 26.996 26.995v47.844h-53.991zm53.991 330.704c0 17.452-5.938 34.612-16.718 48.32l-10.278 13.07-10.278-13.07c-10.78-13.707-16.717-30.868-16.717-48.32v-262.86h53.991z"/></svg>