<?xml version="1.0" encoding="iso-8859-1"?>
<!-- Generator: Adobe Illustrator 19.0.0, SVG Export Plug-In . SVG Version: 6.00 Build 0)  -->
<svg version="1.1" id="Capa_1" xmlns="http://www.w3.org/2000/svg" xmlns:xlink="http://www.w3.org/1999/xlink" x="0px" y="0px"
	 viewBox="0 0 512 512" style="enable-background:new 0 0 512 512;" xml:space="preserve">
<g>
	<g>
		<g>
			<rect x="468.885" y="127.339" width="14.982" height="240.016"/>
			<rect x="468.885" y="402.314" width="14.982" height="14.982"/>
			<rect x="468.885" y="377.343" width="14.982" height="14.982"/>
			
				<rect x="92.476" y="44.499" transform="matrix(0.7071 0.7071 -0.7071 0.7071 66.0423 -55.4599)" width="14.982" height="14.982"/>
			
				<rect x="74.818" y="26.847" transform="matrix(-0.7071 -0.7071 0.7071 -0.7071 116.2295 116.821)" width="14.982" height="14.982"/>
			
				<rect x="99.285" y="88.354" transform="matrix(0.7071 0.7071 -0.7071 0.7071 109.8972 -73.6249)" width="89.074" height="14.982"/>
			
				<rect x="48.002" y="186.142" transform="matrix(-0.7071 -0.7071 0.7071 -0.7071 -42.1867 369.7916)" width="14.982" height="14.982"/>
			
				<rect x="78.782" y="136.79" transform="matrix(-0.7071 -0.7071 0.7071 -0.7071 32.1282 338.9955)" width="14.982" height="52.108"/>
			
				<rect x="30.341" y="203.795" transform="matrix(-0.7071 -0.7071 0.7071 -0.7071 -84.8199 387.4391)" width="14.982" height="14.982"/>
			
				<rect x="140.522" y="194.918" transform="matrix(0.7071 0.7071 -0.7071 0.7071 193.4219 -42.4999)" width="14.982" height="34.626"/>
			
				<rect x="74.023" y="248.758" transform="matrix(-0.7071 0.7071 -0.7071 -0.7071 358.7128 363.9149)" width="59.929" height="14.982"/>
			
				<rect x="97.824" y="161.296" transform="matrix(-0.7071 -0.7071 0.7071 -0.7071 38.8154 414.7983)" width="14.982" height="76.129"/>
			
				<rect x="264.969" y="351.729" transform="matrix(-0.7071 0.7071 -0.7071 -0.7071 750.8143 407.4435)" width="52.108" height="14.982"/>
			
				<rect x="252.74" y="382.518" transform="matrix(-0.7071 -0.7071 0.7071 -0.7071 168.4645 849.7987)" width="14.982" height="14.982"/>
			
				<rect x="235.084" y="400.177" transform="matrix(-0.7071 -0.7071 0.7071 -0.7071 125.8369 867.4599)" width="14.982" height="14.982"/>
			
				<rect x="345.27" y="391.298" transform="matrix(-0.7071 -0.7071 0.7071 -0.7071 313.2719 946.9814)" width="14.982" height="34.625"/>
			
				<rect x="301.248" y="422.666" transform="matrix(-0.7071 -0.7071 0.7071 -0.7071 206.9948 991.0001)" width="14.982" height="59.928"/>
			
				<rect x="302.574" y="357.665" transform="matrix(0.7071 0.7071 -0.7071 0.7071 370.639 -103.3425)" width="14.982" height="76.129"/>
			<polygon points="35.959,490.167 21.833,476.041 75.501,422.374 64.907,411.78 0.645,476.041 35.959,511.355 100.257,447.056 
				89.664,436.462 			"/>
			<polygon points="0,0 155.308,155.308 165.902,144.714 36.17,14.982 486.424,14.982 449.271,52.135 459.866,62.729 
				497.018,25.576 497.018,475.831 367.357,346.169 356.764,356.763 512,512 512,0 			"/>
			<path d="M330.98,330.98l7.379-7.379l16.954,16.954l29.036-29.036l-16.954-16.954l42.395-42.396v-34.393l-27.094-27.094
				c2.901,0.359,5.816,0.557,8.735,0.557c18.086,0,36.172-6.885,49.941-20.654c27.537-27.537,27.537-72.345,0-99.883
				c-27.537-27.537-72.345-27.537-99.883,0c-13.34,13.34-20.687,31.076-20.687,49.941c0,2.931,0.198,5.828,0.547,8.692
				l-27.051-27.051h-34.393l-42.396,42.396l-16.96-16.96l-29.036,29.036l16.96,16.96l-7.379,7.379l30.953,30.953L47.444,376.659
				l41.499,41.5l117.368-117.367l4.862,4.854L93.839,422.98l41.499,41.5l164.689-164.453L330.98,330.98z M240.617,204.67
				l0.235-0.235l7.606-7.606l66.796,66.782l-7.848,7.848L240.617,204.67z M310.691,237.86l48.998-48.998l15.157,15.157
				l-48.997,48.997h-0.001L310.691,237.86z M330.98,309.793l-20.359-20.359l15.227-15.228l20.359,20.36L330.98,309.793z
				 M355.313,319.368l-6.36-6.36l7.848-7.848l6.359,6.359L355.313,319.368z M385.441,214.613l9.368,9.369v21.982l-38.007,38.007
				l-20.359-20.36L385.441,214.613z M352.084,81.298c10.849-10.849,25.096-16.273,39.347-16.273c14.248,0,28.5,5.426,39.347,16.273
				c21.696,21.696,21.696,56.999,0,78.696c-5.46,5.46-11.781,9.542-18.53,12.254c-1.334-1.615-2.062-3.625-2.062-5.746
				c0-2.414,0.94-4.684,2.648-6.391l13.187-13.187c5.761-5.761,5.761-15.135,0-20.896l-39.97-39.97
				c-2.791-2.792-6.501-4.328-10.449-4.328s-7.658,1.537-10.449,4.328l-13.187,13.186c-1.707,1.707-3.976,2.648-6.391,2.648
				c-2.122,0-4.13-0.727-5.745-2.062C342.543,93.079,346.625,86.756,352.084,81.298z M336.11,114.937
				c2.953,1.266,6.157,1.936,9.465,1.936c6.416,0,12.449-2.499,16.986-7.036l13.042-13.041l39.679,39.679l-13.042,13.041
				c-4.537,4.537-7.036,10.569-7.036,16.986c0,3.309,0.669,6.513,1.936,9.466c-16.086,1.643-32.757-3.677-45.056-15.975
				C339.785,147.693,334.466,131.023,336.11,114.937z M349.096,178.269l-48.998,48.998l-15.288-15.288l48.998-48.998
				L349.096,178.269z M323.213,152.388l-48.998,48.998l-15.157-15.157l48.997-48.998L323.213,152.388z M266.112,117.268h21.982
				l9.368,9.368l-48.998,48.998l-20.36-20.359L266.112,117.268z M192.704,156.757l7.848-7.848l6.365,6.366l-7.848,7.848
				L192.704,156.757z M202.284,181.097l15.227-15.227l20.359,20.359l-15.227,15.227L202.284,181.097z M135.339,443.292
				l-20.311-20.312L232.37,305.638l-26.068-26.026L88.943,396.971l-20.311-20.312l137.655-137.654l66.709,66.629L135.339,443.292z
				 M283.72,295.146l-66.802-66.777l13.104-13.104l66.789,66.79L283.72,295.146z"/>
		</g>
	</g>
</g>
<g>
</g>
<g>
</g>
<g>
</g>
<g>
</g>
<g>
</g>
<g>
</g>
<g>
</g>
<g>
</g>
<g>
</g>
<g>
</g>
<g>
</g>
<g>
</g>
<g>
</g>
<g>
</g>
<g>
</g>
</svg>
