<svg id="Layer_1" enable-background="new 0 0 64 64" height="512" viewBox="0 0 64 64" width="512" xmlns="http://www.w3.org/2000/svg"><path d="m56.2 46.5c-.1-.1-.1-.1-.2-.2 0-4.2-2.5-8-6.3-9.9l-3.2-1.5.4-.2c2.5-1.2 3.5-4.2 2.2-6.7l-1.1-2.3-.9-10c-.6-7.8-7.1-13.7-14.9-13.7h-.3c-7.9 0-14.4 5.9-15 13.7l-.9 10-1.1 2.3c-1.2 2.5-.2 5.5 2.2 6.7l.4.2-3.2 1.5c-3.8 1.8-6.3 5.7-6.3 10v15.6h38c1.4.2 2.7-.3 3.7-1.2l7.9-7.9c1-1 1.2-2.6.4-3.8zm-39.7-15.3c-.3-.8-.2-1.6.2-2.3l1.3-2.6.9-10.4c.5-6.8 6.2-11.9 12.9-11.9h.3c6.8 0 12.4 5.1 13 11.9l.9 10.4 1.3 2.6c.7 1.5.1 3.3-1.3 4l-1.8.9-4.5-2.1c2.1-2.1 3.3-4.9 3.3-7.9v-6c0-1.5-1.2-2.8-2.7-3l-3.7-.4c-2-.2-3.6-1.9-3.6-4v-1.4h-2v1.5c0 2.1-1.6 3.8-3.6 4l-3.7.4c-1.5.1-2.7 1.4-2.7 3v6c0 3 1.2 5.8 3.3 7.9l-4.5 2.1-1.8-1c-.7-.4-1.2-1-1.5-1.7zm19.5.7-.9.4c-2 1-4.3 1-6.3 0l-.8-.4c-3.1-1.5-5-4.6-5-8v-6c0-.5.4-.9.9-1l3.7-.4c1.8-.2 3.4-1.1 4.4-2.6 1 1.5 2.6 2.5 4.4 2.6l3.7.4c.5 0 .9.5.9 1v6c0 3.3-1.9 6.5-5 8zm2.7 4.6-3.2 1.6c-2.3 1.1-4.9 1.1-7.2 0l-3.2-1.6 1.3-3.2c.2.1.4.2.5.3l.9.4c2.5 1.3 5.5 1.3 8.1 0l.9-.4c.2-.1.4-.2.5-.3zm-7.7 23.5h-11v-11h-2v11h-8v-13.7c0-3.5 2-6.7 5.2-8.1l9-4.2-3.5 8.6 6.6 2.2 3.7 6.4zm-2.3-16.8-5.4-1.8 1.2-3 3 1.5c2.8 1.4 6.1 1.4 8.9 0l3-1.5 1 2.6h-2.4c-1.5 0-2.8 1.2-3 2.7l-3 5.3zm15.3-.2c.6 0 1 .4 1 1v3c0 .6-.4 1-1 1h-1.4l-1.6 1.6-1.6-1.6h-1.4c-.6 0-1-.4-1-1v-3c0-.6.4-1 1-1zm-11 17v-8.7l2.1-3.6c.3 1.3 1.5 2.3 2.9 2.3h.6l2.4 2.4 2.4-2.4h.6c1.7 0 3-1.3 3-3v-3c0-1.7-1.3-3-3-3h-1.3l-2.8-7 9 4.2c2.8 1.3 4.7 3.9 5.1 7-.9-.1-1.7.2-2.3.9l-1.4 1.4c-.8.8-1.1 2-.7 3.1l.4 1.2-2.1 2.1-1.2-.4c-1.1-.4-2.3-.1-3.1.7l-1.6 1.4c-1.2 1.2-1.2 3 0 4.2.1.1.2.2.3.2zm23.1-8.5-7.9 7.9c-.8.8-2.1.9-3 .3l-1.7-1.1c-.5-.3-.6-.9-.3-1.4 0-.1.1-.1.1-.2l1.4-1.4c.2-.2.4-.3.7-.3.1 0 .2 0 .3.1l2.4.8 3.9-3.9-.8-2.4c-.1-.4 0-.8.2-1l1.4-1.4c.2-.2.5-.3.8-.3s.6.2.7.4l1.7 2.6c.5.4.5.9.1 1.3z"/></svg>