<?xml version="1.0" encoding="UTF-8"?>
<svg width="100px" height="100px" viewBox="0 0 19 18" version="1.1" xmlns="http://www.w3.org/2000/svg" xmlns:xlink="http://www.w3.org/1999/xlink">
    <!-- Generator: Sketch 54 (76480) - https://sketchapp.com -->
    <title>swimming-pool</title>
    <desc>Created with Sketch.</desc>
    <g id="Page-1" stroke="none" stroke-width="1" fill="none" fill-rule="evenodd">
        <g id="New-Icons" transform="translate(-150.000000, -151.000000)" fill="#24479D" fill-rule="nonzero">
            <g id="swimming-pool" transform="translate(150.000000, 151.000000)">
                <path d="M6.40908477,4.68196389 L10.3671994,4.68196389 L10.3671994,5.68774097 L6.40908477,5.68774097 L6.40908477,4.68196389 L6.40908477,4.68196389 Z M6.40908477,9.11024647 L6.40908477,8.74510047 L7.4486562,8.74510047 C7.79107378,8.56640502 8.15219309,8.31985243 8.5407237,7.9780314 C8.65833281,7.87345683 8.76493564,7.78874725 8.8739843,7.69941444 L6.40908477,7.69941444 L6.40908477,6.73381476 L10.3671994,6.73381476 L10.3671994,6.74324019 C10.6734961,6.61432653 10.9449843,6.5430989 11.2066295,6.48785871 L11.2066295,2.02160597 C11.2066295,2.00681162 11.2118493,1.99127159 11.2118493,1.97647724 L11.2118493,1.91616641 C11.2170691,0.527973312 12.0419733,0.74956044 12.0419733,0.74956044 C12.5286954,0.799759812 12.6401005,1.47862951 12.6644396,1.86599686 C12.6899419,2.11254945 12.8611209,2.13244427 12.8611209,2.13244427 L13.2381978,2.13244427 C13.3832182,2.13244427 13.4148352,2.02163579 13.4148352,1.93606122 C13.4099137,1.90587598 13.4099137,1.8758697 13.4043956,1.84079278 L13.4043956,1.83542386 C13.3698854,1.54911146 13.3101115,1.11130612 13.22919,0.875193093 C13.178752,0.749590267 13.1128932,0.63878179 13.0423815,0.548166405 C13.027617,0.52800314 13.0125243,0.50810832 12.9971334,0.487825746 C12.9777159,0.467960754 12.9620267,0.447797488 12.9420126,0.43255573 C12.9011193,0.392229199 12.8616876,0.357152276 12.8213611,0.326847724 C12.7798713,0.29189011 12.7354882,0.261585557 12.6905086,0.231579278 C12.6905086,0.22677708 12.6855871,0.22677708 12.6855871,0.22677708 C12.6003407,0.176339089 12.5153328,0.135833595 12.4190204,0.100905808 C12.2832763,0.0504379906 12.162595,0.0304238619 12.0726954,0.015032967 C12.0167096,0.0102605965 11.9671366,0.00516012559 11.9108524,0.00516012559 C11.9064976,0.00516012559 11.9015463,0.00516012559 11.9015463,0.00516012559 L11.8771774,0.00516012559 C11.0464568,0.00516012559 10.3683328,0.683910518 10.3683328,1.51403454 L10.3683328,3.63621821 L6.40905495,3.63621821 L6.40905495,2.02160597 C6.40905495,2.00681162 6.41442386,1.99127159 6.41442386,1.97647724 L6.41442386,1.91616641 C6.41442386,0.527973312 7.24424961,0.74956044 7.24424961,0.74956044 C7.72718367,0.799759812 7.84264521,1.47862951 7.86802826,1.86599686 C7.89326217,2.11254945 8.06423234,2.13244427 8.06423234,2.13244427 L8.44116013,2.13244427 C8.58704553,2.13244427 8.61737991,2.02163579 8.61737991,1.93606122 C8.61230926,1.90587598 8.61230926,1.8758697 8.60750706,1.84079278 L8.60750706,1.83542386 C8.57213187,1.54911146 8.51223862,1.11130612 8.43116797,0.875193093 C8.38081947,0.749590267 8.31558713,0.63878179 8.24450863,0.548166405 C8.23001256,0.52800314 8.21462166,0.50810832 8.19997645,0.487825746 C8.17981319,0.467960754 8.16501884,0.447797488 8.14413972,0.43255573 C8.10411146,0.392229199 8.06393407,0.357152276 8.02390581,0.326847724 C7.9831617,0.29189011 7.93862951,0.261585557 7.89353061,0.231579278 C7.89353061,0.22677708 7.88789325,0.22677708 7.88789325,0.22677708 C7.80231868,0.176339089 7.71704239,0.135833595 7.62177394,0.100905808 C7.48602983,0.0504379906 7.36537834,0.0304238619 7.27458399,0.015032967 C7.21904553,0.0102605965 7.1694427,0.00516012559 7.11360597,0.00516012559 C7.10853532,0.00516012559 7.10373312,0.00516012559 7.10373312,0.00516012559 L7.07879749,0.00516012559 C6.24867347,0.00516012559 5.57022135,0.683910518 5.57022135,1.51403454 L5.57022135,9.18202442 C5.84230612,9.18335322 6.12089325,9.1647708 6.40908477,9.11024647 L6.40908477,9.11024647 Z" id="Shape"></path>
                <path d="M12.0553061,7.33164364 C12.0553061,7.33164364 14.0044914,6.82884458 16.016314,8.22747724 C16.5969922,8.683 17.1469184,9.02932496 16.7547786,9.50038776 C16.534325,9.704854 16.3458163,9.89455573 15.6542998,9.18624647 C14.9790392,8.73000785 13.9110722,8.04806593 12.0553061,8.32131397 C11.3330675,8.46314286 10.7982041,8.65168132 9.77751334,9.61003297 C8.7563752,10.5692198 7.23154317,11.2453454 5.61302355,11.103248 C3.99435479,10.9611209 3.14537991,10.3484976 2.24969545,9.57811774 C2.06130612,9.32753846 2.06130612,9.06067347 2.17124961,8.90285714 C2.28119309,8.74623391 2.70551648,8.58844741 2.94133124,8.82456044 C3.17684772,9.06067347 4.29313501,10.0033658 5.39301727,10.0660031 C6.49304867,10.1292072 7.59293093,10.1913077 9.07003925,8.8871978 C10.5470283,7.58326688 11.2860597,7.48886342 12.0553061,7.33164364 L12.0553061,7.33164364 Z" id="Path"></path>
                <path d="M17.713697,14.8339294 C17.713697,15.3151633 17.3241523,15.705573 16.842978,15.705573 L2.14061695,15.705573 C1.65941287,15.705573 1.26915228,15.3159984 1.26915228,14.8339294 L1.26915228,2.55587284 L0,2.55587284 L0,16.1241099 C0,16.6792559 0.45033281,17.1297378 1.00577708,17.1297378 L17.9788022,17.1297378 C18.5334113,17.1297378 18.9841319,16.6792559 18.9841319,16.1241099 L18.9841319,2.55587284 L17.7142936,2.55587284 L17.7142936,14.8339294 L17.713697,14.8339294 L17.713697,14.8339294 Z" id="Path"></path>
            </g>
        </g>
    </g>
</svg>