<?xml version="1.0" encoding="UTF-8"?>
<svg width="100px" height="100px" viewBox="0 0 22 22" version="1.1" xmlns="http://www.w3.org/2000/svg" xmlns:xlink="http://www.w3.org/1999/xlink">
    <!-- Generator: Sketch 54 (76480) - https://sketchapp.com -->
    <title>availability</title>
    <desc>Created with Sketch.</desc>
    <g id="Page-1" stroke="none" stroke-width="1" fill="none" fill-rule="evenodd">
        <g id="New-Icons" transform="translate(-103.000000, -149.000000)" fill="#24479D" fill-rule="nonzero">
            <g id="availability" transform="translate(103.000000, 149.000000)">
                <path d="M11,4.03335573 C7.15245055,4.03335573 4.03335573,7.15245055 4.03335573,10.9998322 C4.03335573,14.8473816 7.15245055,17.9664764 11,17.9664764 C14.8473816,17.9664764 17.9664764,14.8473816 17.9664764,10.9998322 C17.9622803,7.15412904 14.8457031,4.03755189 11,4.03335573 Z M11.3665771,17.2145233 L11.3665771,16.4998322 C11.3665771,16.297409 11.2024231,16.1330872 11,16.1330872 C10.797409,16.1330872 10.633255,16.297409 10.633255,16.4998322 L10.633255,17.2145233 C7.48478698,17.0261994 4.97363281,14.5150452 4.78530886,11.3665771 L5.5,11.3665771 C5.70242312,11.3665771 5.86657715,11.2024231 5.86657715,10.9998322 C5.86657715,10.797409 5.70242312,10.6330872 5.5,10.6330872 L4.78530886,10.6330872 C4.97363281,7.48478698 7.48478698,4.97363281 10.633255,4.78530886 L10.633255,5.49983216 C10.633255,5.70242312 10.797409,5.86657715 11,5.86657715 C11.2024231,5.86657715 11.3665771,5.70242312 11.3665771,5.49983216 L11.3665771,4.78530886 C14.5150452,4.97363281 17.0261994,7.48478698 17.2145233,10.6330872 L16.4998322,10.6330872 C16.297409,10.6330872 16.133255,10.797409 16.133255,10.9998322 C16.133255,11.2024231 16.297409,11.3665771 16.4998322,11.3665771 L17.2145233,11.3665771 C17.0261994,14.5150452 14.5150452,17.0260315 11.3665771,17.2145233 L11.3665771,17.2145233 Z" id="Shape"></path>
                <path d="M15.5157471,12.1185303 L13.5237427,11.4545288 C13.7788696,10.0602264 12.8552093,8.72299192 11.460907,8.46786497 C10.0664368,8.21290589 8.72937012,9.1363983 8.47424316,10.5308685 C8.34533691,11.2351532 8.51670836,11.9614258 8.94673158,12.5339508 L8.54003906,12.9406433 C8.39434814,13.0812988 8.39031982,13.3134308 8.53097532,13.4591217 C8.6717987,13.6046448 8.90376283,13.6086731 9.04945375,13.4680176 C9.05247496,13.4651642 9.05549623,13.4621429 9.05851745,13.4591217 L9.46588135,13.0531006 C10.5936432,13.9022369 12.1960755,13.6764831 13.0452118,12.5487213 C13.1392059,12.4238434 13.2216187,12.2907409 13.291275,12.1507568 L15.2841187,12.815094 C15.476471,12.8792114 15.6842651,12.7751465 15.7483825,12.5826263 C15.8123322,12.3902741 15.7080993,12.1824798 15.5157471,12.1185303 Z M11,12.8332214 C10.6406403,12.8330536 10.289505,12.7268066 9.99057005,12.5277405 L10.8125153,11.7056274 C11.0483398,11.7737732 11.3024597,11.7136841 11.4828949,11.547348 L12.5802765,11.9139252 C12.2554932,12.4807434 11.6530914,12.8310394 11,12.8332214 L11,12.8332214 Z M12.8112335,11.2173615 L11.718216,10.8531341 C11.6366424,10.4565124 11.2489166,10.2010498 10.8521271,10.2826233 C10.511734,10.3526154 10.2671814,10.6522217 10.2666779,10.9998322 C10.2675171,11.0632782 10.2767487,11.1262207 10.2940368,11.1873169 L9.47209166,12.0092621 C8.91249086,11.1654968 9.14294434,10.027832 9.98670961,9.46823118 C10.8304749,8.90863037 11.9681396,9.13908385 12.5277405,9.98284912 C12.7276459,10.2843018 12.8338928,10.6381226 12.8332214,10.9998322 C12.830368,11.0726776 12.8229828,11.1453552 12.8112335,11.2173615 L12.8112335,11.2173615 Z" id="Shape"></path>
                <path d="M11,-3.38294058e-07 C4.92478942,1.00031095e-13 0,4.92478942 0,10.9998322 C0,13.8243561 1.08647155,16.5407868 3.03466797,18.5861664 C3.17431641,18.7326966 3.40644837,18.7384033 3.55297852,18.598587 C3.69967649,18.4589386 3.70521546,18.2268066 3.56556703,18.0801087 C-0.345596324,13.9749146 -0.188156117,7.47639466 3.91720579,3.56523131 C8.0223999,-0.34576416 14.5209198,-0.188323953 18.4320831,3.91703795 C22.1044007,7.77180482 22.2207184,13.7943115 18.6997986,17.7878876 L18.6997986,16.8664093 C18.6997986,16.6639862 18.5356445,16.4996643 18.3332214,16.4996643 C18.1306305,16.4996643 17.9664764,16.6639862 17.9664764,16.8664093 L17.9664764,18.6997986 C17.9664764,18.9022217 18.1306305,19.0663757 18.3332214,19.0663757 L20.1664429,19.0663757 C20.3690338,19.0663757 20.5331879,18.9022217 20.5331879,18.6997986 C20.5331879,18.4972077 20.3690338,18.3330536 20.1664429,18.3330536 L19.195282,18.3330536 C23.246933,13.8085785 22.8635712,6.85636901 18.3390961,2.80455016 C16.321579,0.998016336 13.7082062,-0.000671386719 11,-3.38294058e-07 Z" id="Path"></path>
                <path d="M7.1306305,20.1298523 C7.25550843,20.0674134 7.33406068,19.9393463 7.33338929,19.7996979 L7.33338929,18.6997986 C7.33338929,18.4972077 7.16923522,18.3330536 6.96664427,18.3330536 L5.5,18.3330536 C5.29757688,18.3330536 5.13342285,18.4972077 5.13342285,18.6997986 L5.13342285,19.4331207 C5.13342285,19.6355438 5.29757688,19.7996979 5.5,19.7996979 C5.70259095,19.7996979 5.86674498,19.6355438 5.86674498,19.4331207 L5.86674498,19.0663757 L6.60006712,19.0663757 L6.60006712,19.5731048 L5.33618164,20.2048797 C5.21180726,20.266983 5.13325502,20.394043 5.13342285,20.53302 L5.13342285,21.6330872 C5.13342285,21.8355103 5.29757688,21.9996643 5.5,21.9996643 L6.96664427,21.9996643 C7.16923522,21.9996643 7.33338929,21.8355103 7.33338929,21.6330872 C7.33338929,21.4304962 7.16923522,21.2663422 6.96664427,21.2663422 L5.86674498,21.2663422 L5.86674498,20.759613 L7.1306305,20.1298523 Z" id="Path"></path>
                <path d="M9.89993288,21.9998322 C10.1025238,21.9998322 10.2666779,21.8356781 10.2666779,21.6330872 L10.2666779,20.899765 L10.633255,20.899765 C10.835846,20.899765 11,20.735611 11,20.53302 C11,20.3305969 10.835846,20.1664429 10.633255,20.1664429 L10.2666779,20.1664429 L10.2666779,19.0663757 C10.2666779,18.8639526 10.1025238,18.6996307 9.89993288,18.6996307 C9.69750977,18.6996307 9.53335573,18.8639526 9.53335573,19.0663757 L9.53335573,20.1664429 L8.80003356,20.1664429 L8.80003356,18.6997986 C8.80003356,18.4972077 8.63571165,18.3330536 8.43328857,18.3330536 C8.23069762,18.3330536 8.06654359,18.4972077 8.06654359,18.6997986 L8.06654359,20.53302 C8.06654359,20.735611 8.23069762,20.899765 8.43328857,20.899765 L9.53335573,20.899765 L9.53335573,21.6330872 C9.53335573,21.8356781 9.69750977,21.9998322 9.89993288,21.9998322 L9.89993288,21.9998322 Z" id="Path"></path>
                <path d="M12.4896393,18.5710602 L11.38974,21.5043488 C11.318573,21.6940155 11.4145813,21.9053345 11.6040802,21.9765015 C11.604248,21.9765015 11.6044159,21.9766693 11.6045837,21.9766693 C11.6457062,21.9917755 11.6893463,21.9996643 11.7333221,21.9998322 C11.8862305,21.9998322 12.0231934,21.9049988 12.0767365,21.7618256 L13.1768036,18.828537 C13.2476349,18.6388702 13.1512909,18.4275513 12.9616242,18.35672 C12.7717896,18.2857208 12.5606384,18.3822327 12.4896393,18.5718994 L12.4896393,18.5710602 Z" id="Path"></path>
                <path d="M14.3614655,21.429657 C14.249176,21.5981751 14.2944946,21.8257751 14.4630127,21.9382324 C14.6315308,22.0505218 14.8592987,22.0050354 14.9715882,21.8366852 L16.4382324,19.6367187 C16.4783478,19.5762939 16.4998322,19.5056305 16.4998322,19.4331207 L16.4998322,18.6997986 C16.4998322,18.4973755 16.3356781,18.3330536 16.133255,18.3330536 L14.2998657,18.3330536 C14.0972748,18.3330536 13.9331207,18.4973755 13.9331207,18.6997986 L13.9331207,19.4331207 C13.9331207,19.6357116 14.0972748,19.7998657 14.2998657,19.7998657 C14.5022888,19.7998657 14.6666107,19.6357116 14.6666107,19.4331207 L14.6666107,19.0663757 L15.76651,19.0663757 L15.76651,19.3230133 L14.3614655,21.429657 Z" id="Path"></path>
            </g>
        </g>
    </g>
</svg>