<?xml version="1.0" encoding="UTF-8"?>
<svg width="100px" height="100px" viewBox="0 0 21 21" version="1.1" xmlns="http://www.w3.org/2000/svg" xmlns:xlink="http://www.w3.org/1999/xlink">
    <!-- Generator: Sketch 54 (76480) - https://sketchapp.com -->
    <title>hospital</title>
    <desc>Created with Sketch.</desc>
    <g id="Page-1" stroke="none" stroke-width="1" fill="none" fill-rule="evenodd">
        <g id="New-Icons" transform="translate(-12.000000, -149.000000)" fill="#FFFFFF" fill-rule="nonzero">
            <g id="hospital" transform="translate(12.000000, 149.000000)">
                <path d="M20.4599005,20.2090786 L17.6889157,20.2090786 L17.6889157,7.93074951 L18.4055497,7.93074951 C18.5966521,7.93074951 18.7877545,7.78742271 18.7877545,7.54854471 L18.7877545,3.24874076 C18.7877545,3.05763837 18.6444277,2.86653597 18.4055497,2.86653597 L13.8190921,2.86653597 C13.6279897,1.28994119 12.0991706,0 10.2359222,0 C8.3726738,0 6.84385462,1.24216559 6.65275222,2.86653597 L2.06629468,2.86653597 C1.87519228,2.86653597 1.68408988,3.00986277 1.68408988,3.24874076 L1.68408988,7.54854471 C1.68408988,7.73964711 1.82741668,7.93074951 2.06629468,7.93074951 L2.78292867,7.93074951 L2.78292867,20.2568542 L0.394148696,20.2568542 C0.203046298,20.2568542 0.0119438999,20.400181 0.0119438999,20.639059 C0.0597194993,20.7823858 0.203046298,20.9734882 0.394148696,20.9734882 L20.4599005,20.9734882 C20.6510029,20.9734882 20.8421053,20.8301614 20.8421053,20.5912834 C20.8421053,20.400181 20.6987785,20.2090786 20.4599005,20.2090786 Z M8.03824461,20.2090786 L8.03824461,16.9603378 L10.0448198,16.9603378 L10.0448198,20.2090786 L8.03824461,20.2090786 Z M12.8158046,20.2090786 L10.8092294,20.2090786 L10.8092294,16.9603378 L12.8158046,16.9603378 L12.8158046,20.2090786 Z M16.9722817,20.2090786 L13.5324385,20.2090786 L13.5324385,16.578133 C13.5324385,16.3870306 13.3891117,16.1959282 13.1502338,16.1959282 L7.70381541,16.1959282 C7.51271301,16.1959282 7.32161062,16.339255 7.32161062,16.578133 L7.32161062,20.2090786 L3.45178706,20.2090786 L3.45178706,7.93074951 L16.9722817,7.93074951 L16.9722817,20.2090786 Z M3.11735786,7.21411552 L2.40072387,7.21411552 C2.40072387,7.21411552 2.40072387,3.63094556 2.40072387,3.63094556 L6.93940582,3.63094556 C7.13050822,3.63094556 7.32161062,3.48761876 7.32161062,3.24874076 C7.32161062,1.86324838 8.6115518,0.764409591 10.2359222,0.764409591 C11.8602926,0.764409591 13.1502338,1.86324838 13.1502338,3.24874076 C13.1502338,3.43984316 13.2935605,3.63094556 13.5324385,3.63094556 L18.0711205,3.63094556 L18.0711205,7.21411552 L17.3544865,7.21411552 L3.11735786,7.21411552 Z" id="Shape"></path>
                <path d="M8.5160006,9.60289549 L6.12722063,9.60289549 C5.93611823,9.60289549 5.74501583,9.74622229 5.74501583,9.98510029 C5.74501583,10.2239783 5.93611823,10.3673051 6.12722063,10.3673051 L8.5160006,10.3673051 C8.707103,10.3673051 8.8982054,10.2239783 8.8982054,9.98510029 C8.8982054,9.79399789 8.7548786,9.60289549 8.5160006,9.60289549 Z" id="Path"></path>
                <path d="M8.5160006,12.9949631 L6.12722063,12.9949631 C5.93611823,12.9949631 5.74501583,13.1382899 5.74501583,13.3771678 C5.74501583,13.6160458 5.93611823,13.7593726 6.12722063,13.7593726 L8.5160006,13.7593726 C8.707103,13.7593726 8.8982054,13.6160458 8.8982054,13.3771678 C8.8982054,13.1860655 8.7548786,12.9949631 8.5160006,12.9949631 Z" id="Path"></path>
                <path d="M14.2490725,9.60289549 L11.8602926,9.60289549 C11.6691902,9.60289549 11.4780878,9.74622229 11.4780878,9.98510029 C11.5258634,10.2239783 11.6691902,10.3673051 11.8602926,10.3673051 L14.2490725,10.3673051 C14.4401749,10.3673051 14.6312773,10.2239783 14.6312773,9.98510029 C14.6312773,9.79399789 14.4879505,9.60289549 14.2490725,9.60289549 Z" id="Path"></path>
                <path d="M14.2490725,12.9949631 L11.8602926,12.9949631 C11.6691902,12.9949631 11.4780878,13.1382899 11.4780878,13.3771678 C11.5258634,13.6160458 11.6691902,13.7593726 11.8602926,13.7593726 L14.2490725,13.7593726 C14.4401749,13.7593726 14.6312773,13.6160458 14.6312773,13.3771678 C14.6312773,13.1860655 14.4879505,12.9949631 14.2490725,12.9949631 Z" id="Path"></path>
            </g>
        </g>
    </g>
</svg>