<?xml version="1.0" encoding="UTF-8"?>
<svg width="100px" height="100px" viewBox="0 0 17 17" version="1.1" xmlns="http://www.w3.org/2000/svg" xmlns:xlink="http://www.w3.org/1999/xlink">
    <!-- Generator: Sketch 54 (76480) - https://sketchapp.com -->
    <title>picture</title>
    <desc>Created with Sketch.</desc>
    <g id="Page-1" stroke="none" stroke-width="1" fill="none" fill-rule="evenodd">
        <g id="New-Icons" transform="translate(-286.000000, -151.000000)" fill="#24479D" fill-rule="nonzero">
            <g id="picture" transform="translate(286.000000, 151.000000)">
                <path d="M14.9018414,0.302766406 L6.17199609,0.302766406 L4.58677266,0.297905469 C4.58410312,0.299459375 4.58175234,0.301252344 4.57912266,0.302846094 L1.19535234,0.302846094 C0.536217187,0.302846094 0,0.839063281 0,1.49815859 L0,15.2046477 C0,15.8637828 0.536217187,16.4 1.19535234,16.4 L14.9018414,16.4 C15.5609367,16.4 16.0971937,15.8637828 16.0971937,15.2046477 L16.0971937,1.49815859 C16.0971539,0.839023437 15.5609367,0.302766406 14.9018414,0.302766406 Z M15.3002789,15.2046078 C15.3002789,15.4243062 15.1215398,15.6030453 14.9018414,15.6030453 L1.19535234,15.6030453 C0.975653906,15.6030453 0.796914844,15.4243062 0.796914844,15.2046078 L0.796914844,1.49811875 C0.796914844,1.27842031 0.975653906,1.09968125 1.19535234,1.09968125 L14.9018414,1.09968125 C15.1215398,1.09968125 15.3002789,1.27842031 15.3002789,1.49811875 L15.3002789,15.2046078 Z" id="Shape"></path>
                <path d="M10.4818547,2.33204844 C10.4077852,2.25793906 10.3049883,2.21530625 10.2001992,2.21530625 C10.0954102,2.21530625 9.99261328,2.25793906 9.91850391,2.33204844 C9.84439453,2.40615781 9.80176172,2.50895469 9.80176172,2.61374375 C9.80176172,2.71853281 9.84435469,2.82132969 9.91850391,2.89543906 C9.99265313,2.96954844 10.0954102,3.01218125 10.2001992,3.01218125 C10.3049883,3.01218125 10.4077852,2.96954844 10.4818547,2.89543906 C10.5559641,2.82132969 10.5986367,2.71853281 10.5986367,2.61374375 C10.5986367,2.50895469 10.5560039,2.40615781 10.4818547,2.33204844 Z" id="Path"></path>
                <path d="M13.7861766,2.21530625 L12.2322305,2.21530625 C12.0122133,2.21530625 11.833793,2.39368672 11.833793,2.61374375 C11.833793,2.83380078 12.0122133,3.01218125 12.2322305,3.01218125 L13.3876992,3.01218125 L13.3876992,8.69282422 L10.2244641,5.52962891 C10.1497172,5.45492187 10.0483945,5.41292656 9.94272891,5.41292656 C9.83706328,5.41292656 9.73574062,5.45492187 9.66099375,5.52962891 L7.55015156,7.64047109 C7.39456172,7.79606094 7.39456172,8.04835156 7.55015156,8.20394141 C7.70578125,8.35953125 7.95799219,8.35953125 8.11366172,8.20394141 L9.94272891,6.37483437 L13.3849102,9.81701562 C13.3858266,9.81793203 13.3868227,9.81868906 13.3877391,9.81956562 L13.3877391,11.7779656 L3.27296484,11.7779656 L6.16550156,8.88542891 L8.314275,11.0342023 C8.46990469,11.1897922 8.72211562,11.1897922 8.87778516,11.0342023 C9.033375,10.8786125 9.033375,10.6263219 8.87778516,10.4706922 L6.44727656,8.04018359 C6.37252969,7.96547656 6.27120703,7.92348125 6.16554141,7.92348125 C6.05987578,7.92348125 5.95855312,7.96547656 5.88380625,8.04018359 L2.70945469,11.2145352 L2.70945469,3.01218125 L8.04859687,3.01218125 C8.26861406,3.01218125 8.44703437,2.83380078 8.44703437,2.61374375 C8.44703437,2.39368672 8.26861406,2.21530625 8.04859687,2.21530625 L2.31097734,2.21530625 C2.09096016,2.21530625 1.91253984,2.39368672 1.91253984,2.61374375 L1.91253984,12.1764031 C1.91253984,12.3964602 2.09096016,12.5748406 2.31097734,12.5748406 L13.7861766,12.5748406 C14.0061937,12.5748406 14.1846141,12.3964602 14.1846141,12.1764031 L14.1846141,2.61374375 C14.1846141,2.39372656 14.0061937,2.21530625 13.7861766,2.21530625 Z" id="Path"></path>
                <path d="M5.80403906,3.9285875 C5.10099609,3.9285875 4.52899922,4.50054453 4.52899922,5.20362734 C4.52899922,5.90671016 5.10095625,6.47866719 5.80403906,6.47866719 C6.50708203,6.47866719 7.07907891,5.90671016 7.07907891,5.20362734 C7.07907891,4.50054453 6.50708203,3.9285875 5.80403906,3.9285875 Z M5.80403906,5.68175234 C5.54039297,5.68175234 5.32591406,5.46727344 5.32591406,5.20362734 C5.32591406,4.93998125 5.54039297,4.72550234 5.80403906,4.72550234 C6.06768516,4.72550234 6.28216406,4.94002109 6.28216406,5.20362734 C6.28216406,5.46727344 6.06768516,5.68175234 5.80403906,5.68175234 Z" id="Shape"></path>
            </g>
        </g>
    </g>
</svg>