<?xml version="1.0" encoding="UTF-8"?>
<svg width="100px" height="100px" viewBox="0 0 21 20" version="1.1" xmlns="http://www.w3.org/2000/svg" xmlns:xlink="http://www.w3.org/1999/xlink">
    <!-- Generator: Sketch 54 (76480) - https://sketchapp.com -->
    <title>price-tag</title>
    <desc>Created with Sketch.</desc>
    <g id="Page-1" stroke="none" stroke-width="1" fill="none" fill-rule="evenodd">
        <g id="New-Icons" transform="translate(-238.000000, -150.000000)" fill="#24479D" fill-rule="nonzero">
            <g id="price-tag" transform="translate(249.000000, 159.000000) rotate(49.000000) translate(-249.000000, -159.000000) translate(243.000000, 148.000000)">
                <path d="M11.2298507,7.81791045 L6.83731343,3.97164179 C6.60447761,3.77014925 6.30895522,3.65820896 6,3.65820896 C5.69104478,3.65820896 5.39552239,3.77014925 5.16268657,3.97164179 L3.60447761,5.33731343 C3.51492537,5.00597015 3.46567164,4.65671642 3.46567164,4.29402985 C3.46567164,3.41641791 3.74328358,2.59253731 4.24477612,1.97910448 C4.71940299,1.39701493 5.34626866,1.07462687 6,1.07462687 C7.39701493,1.07462687 8.53432836,2.51641791 8.53432836,4.29402985 C8.53432836,4.58955224 8.7761194,4.83134328 9.07164179,4.83134328 L9.07164179,4.83134328 C9.36716418,4.83134328 9.60895522,4.58955224 9.60895522,4.29402985 C9.60895522,1.92537313 7.9880597,0 6,0 C5.01492537,0 4.09701493,0.46119403 3.4119403,1.29850746 C2.75373134,2.10447761 2.39104478,3.16567164 2.39104478,4.29402985 C2.39104478,4.92985075 2.50746269,5.54328358 2.72686567,6.10746269 L0.774626866,7.81791045 C0.286567164,8.24776119 0.00447761194,8.86567164 0.00447761194,9.51492537 L0.00447761194,19.1597015 C0.00447761194,20.6462687 1.21343284,21.8552239 2.7,21.8552239 L9.30447761,21.8552239 C10.7910448,21.8552239 12,20.6462687 12,19.1597015 L12,9.51492537 C12,8.86567164 11.7179104,8.24776119 11.2298507,7.81791045 Z M10.9253731,19.1597015 C10.9253731,20.0552239 10.2,20.780597 9.30447761,20.780597 L2.69552239,20.780597 C1.8,20.780597 1.07462687,20.0552239 1.07462687,19.1597015 L1.07462687,9.51492537 C1.07462687,9.17462687 1.22238806,8.84776119 1.47761194,8.6238806 L3.24626866,7.07462687 C3.3,7.14626866 3.35373134,7.21791045 3.40746269,7.28955224 C4.09253731,8.12686567 5.01044776,8.5880597 5.99552239,8.5880597 L5.99552239,8.5880597 C6.29104478,8.5880597 6.53283582,8.34626866 6.53283582,8.05074627 C6.53283582,7.75522388 6.29104478,7.51343284 5.99552239,7.51343284 C5.33731343,7.51343284 4.71492537,7.19104478 4.24029851,6.60895522 C4.17761194,6.52835821 4.11492537,6.44776119 4.05671642,6.36268657 L5.86567164,4.77761194 C5.91044776,4.73731343 5.95970149,4.72835821 5.99552239,4.72835821 C6.03134328,4.72835821 6.08059701,4.73731343 6.12537313,4.77761194 L10.5179104,8.6238806 C10.7731343,8.84776119 10.9208955,9.17462687 10.9208955,9.51492537 L10.9208955,19.1597015 L10.9253731,19.1597015 Z" id="Shape"></path>
                <path d="M6.59104478,13.5895522 L5.40895522,13.5895522 C4.99253731,13.5895522 4.65223881,13.2492537 4.65223881,12.8328358 C4.65223881,12.4164179 4.99253731,12.0761194 5.40895522,12.0761194 L7.49104478,12.0761194 C7.78656716,12.0761194 8.02835821,11.8343284 8.02835821,11.538806 C8.02835821,11.2432836 7.78656716,11.0014925 7.49104478,11.0014925 L6.53731343,11.0014925 L6.53731343,10.3029851 C6.53731343,10.0074627 6.29552239,9.76567164 6,9.76567164 C5.70447761,9.76567164 5.46268657,10.0074627 5.46268657,10.3029851 L5.46268657,11.0014925 L5.40895522,11.0014925 C4.39701493,11.0014925 3.57761194,11.8253731 3.57761194,12.8328358 C3.57761194,13.8447761 4.40149254,14.6641791 5.40895522,14.6641791 L6.59104478,14.6641791 C7.00746269,14.6641791 7.34776119,15.0044776 7.34776119,15.4208955 C7.34776119,15.8373134 7.00746269,16.1776119 6.59104478,16.1776119 L4.46865672,16.1776119 C4.17313433,16.1776119 3.93134328,16.419403 3.93134328,16.7149254 C3.93134328,17.0104478 4.17313433,17.2522388 4.46865672,17.2522388 L5.46268657,17.2522388 L5.46268657,17.9641791 C5.46268657,18.2597015 5.70447761,18.5014925 6,18.5014925 C6.29552239,18.5014925 6.53731343,18.2597015 6.53731343,17.9641791 L6.53731343,17.2522388 L6.6,17.2522388 C6.60447761,17.2522388 6.60895522,17.2522388 6.61343284,17.2522388 C7.6119403,17.238806 8.42238806,16.4238806 8.42238806,15.4208955 C8.42238806,14.4089552 7.59850746,13.5895522 6.59104478,13.5895522 Z" id="Path"></path>
            </g>
        </g>
    </g>
</svg>