<?xml version="1.0" encoding="UTF-8"?>
<svg width="100px" height="100px" viewBox="0 0 18 18" version="1.1" xmlns="http://www.w3.org/2000/svg" xmlns:xlink="http://www.w3.org/1999/xlink">
    <!-- Generator: Sketch 54 (76480) - https://sketchapp.com -->
    <title>review</title>
    <desc>Created with Sketch.</desc>
    <g id="Page-1" stroke="none" stroke-width="1" fill="none" fill-rule="evenodd">
        <g id="New-Icons" transform="translate(-330.000000, -151.000000)" fill="#24479D" fill-rule="nonzero">
            <g id="review" transform="translate(330.000000, 151.000000)">
                <path d="M17.9354605,12.4500494 C17.8167434,12.0734704 17.465625,11.8188651 17.0708388,11.8231579 L16.6736842,11.8231579 L16.6736842,2.12210526 C16.6736842,1.95468749 16.5379441,1.81894737 16.3705263,1.81894737 L12.1263158,1.81894737 L12.1263158,0.303157895 C12.1263158,0.135740122 11.9905757,9.9475983e-14 11.8231579,9.9475983e-14 L0.303157895,9.9475983e-14 C0.13574016,9.9475983e-14 4.03233003e-13,0.135740122 4.03233003e-13,0.303157895 L4.03233003e-13,16.0673684 C4.03233003e-13,16.2347862 0.13574016,16.3705263 0.303157895,16.3705263 L10.3195066,16.3705263 L10.1679277,16.8379934 C10.0450658,17.2130921 10.1781415,17.6244572 10.4974342,17.8565625 C10.8165789,18.0886678 11.2489638,18.0883717 11.5679605,17.8559704 L13.157023,16.6985526 C13.2643421,16.6200987 13.410148,16.6200987 13.5174671,16.6985526 L15.1094901,17.8565625 C15.4268585,18.0925164 15.8614638,18.0925164 16.1789803,17.8565625 C16.5018257,17.6274178 16.6362336,17.2135362 16.509375,16.8382895 L15.9006908,14.9629441 C15.8607237,14.83875 15.9057237,14.7028619 16.0118585,14.6270724 L17.6068421,13.4690625 C17.9289474,13.2388816 18.0623191,12.825 17.9354605,12.4500494 Z M16.0673684,2.42526316 L16.0673684,11.8231579 L15.1003125,11.8231579 C15.0684868,11.8230099 15.0368092,11.8178289 15.0066119,11.8077632 C14.9152796,11.7769737 14.8436349,11.705477 14.8126974,11.6142928 L14.203273,9.74042761 C14.0805592,9.36725328 13.7321053,9.11501644 13.3392434,9.11501644 C12.9463816,9.11501644 12.5979277,9.36725328 12.4752138,9.74042761 L12.1263158,10.8115461 L12.1263158,7.88210526 L14.5515789,7.88210526 C14.7189967,7.88210526 14.8547368,7.74636514 14.8547368,7.57894737 C14.8547368,7.4115296 14.7189967,7.27578947 14.5515789,7.27578947 L12.1263158,7.27578947 L12.1263158,6.06315789 L14.5515789,6.06315789 C14.7189967,6.06315789 14.8547368,5.92741777 14.8547368,5.76 C14.8547368,5.59258223 14.7189967,5.45684211 14.5515789,5.45684211 L12.1263158,5.45684211 L12.1263158,4.24421053 L14.5515789,4.24421053 C14.7189967,4.24421053 14.8547368,4.1084704 14.8547368,3.94105263 C14.8547368,3.77363486 14.7189967,3.63789474 14.5515789,3.63789474 L12.1263158,3.63789474 L12.1263158,2.42526316 L16.0673684,2.42526316 Z M0.606315789,15.7642105 L0.606315789,0.606315789 L11.52,0.606315789 L11.52,11.8231579 L9.60705595,11.8231579 C9.21256579,11.8221217 8.86233555,12.0758388 8.74006579,12.4509375 C8.61794409,12.8261842 8.75161186,13.2374013 9.07105263,13.4690625 L10.6654441,14.6267763 C10.7723191,14.7028619 10.8174671,14.8393421 10.7770559,14.9641283 L10.5168257,15.7642105 L0.606315789,15.7642105 Z M17.2496546,12.9787994 L15.6551151,14.1368092 C15.3356743,14.3669901 15.2017105,14.7773191 15.3239803,15.1515296 L15.9334046,17.0250987 C15.975,17.1501809 15.9308882,17.2879934 15.8241612,17.3657072 C15.7175823,17.4434211 15.5729605,17.443125 15.4665296,17.3651151 L13.8734704,16.2062171 C13.5535855,15.9760362 13.1222368,15.9760362 12.802352,16.2062171 L11.2110691,17.364227 C11.1047862,17.4423849 10.9600164,17.4426809 10.8532895,17.3651151 C10.7465625,17.2874013 10.7023026,17.1497368 10.7438981,17.0245066 L11.3530263,15.1518257 C11.4757402,14.777023 11.3416283,14.3659539 11.0215954,14.135625 L9.42824016,12.9790954 C9.32077304,12.9021217 9.27562502,12.7644572 9.31648028,12.6387829 C9.35733555,12.5131085 9.47501644,12.4284375 9.60705595,12.4294737 L11.5775823,12.4294737 C11.7038487,12.4305099 11.8287829,12.4034211 11.9432072,12.3499836 L11.9489803,12.346727 L11.9544572,12.3449506 C11.95875,12.3430263 11.9617105,12.3394737 11.9660033,12.3372533 C12.1918915,12.2323026 12.3641941,12.0383882 12.4419079,11.8016941 L13.0513322,9.92842105 C13.0921875,9.80407895 13.2083882,9.71985198 13.3392434,9.71985198 C13.4702467,9.71985198 13.5864474,9.80407895 13.6273026,9.92842105 L14.236875,11.8031743 C14.3592928,12.1764967 14.7074507,12.4290296 15.1003125,12.4294737 L17.0708388,12.4294737 C17.2028783,12.4284375 17.3204112,12.5131085 17.3612665,12.6386349 C17.4022698,12.7641612 17.3572698,12.9016777 17.2499507,12.9787994 L17.2496546,12.9787994 Z" id="Shape"></path>
                <path d="M2.72842105,3.03157895 L9.39789474,3.03157895 C9.56531251,3.03157895 9.70105263,2.89583883 9.70105263,2.72842105 C9.70105263,2.56100328 9.56531251,2.42526316 9.39789474,2.42526316 L2.72842105,2.42526316 C2.56100332,2.42526316 2.42526316,2.56100328 2.42526316,2.72842105 C2.42526316,2.89583883 2.56100332,3.03157895 2.72842105,3.03157895 Z" id="Path"></path>
                <path d="M2.72842105,5.45684211 L9.39789474,5.45684211 C9.56531251,5.45684211 9.70105263,5.32110198 9.70105263,5.15368421 C9.70105263,4.98626644 9.56531251,4.85052632 9.39789474,4.85052632 L2.72842105,4.85052632 C2.56100332,4.85052632 2.42526316,4.98626644 2.42526316,5.15368421 C2.42526316,5.32110198 2.56100332,5.45684211 2.72842105,5.45684211 Z" id="Path"></path>
                <path d="M2.72842105,7.88210526 L9.39789474,7.88210526 C9.56531251,7.88210526 9.70105263,7.74636514 9.70105263,7.57894737 C9.70105263,7.4115296 9.56531251,7.27578947 9.39789474,7.27578947 L2.72842105,7.27578947 C2.56100332,7.27578947 2.42526316,7.4115296 2.42526316,7.57894737 C2.42526316,7.74636514 2.56100332,7.88210526 2.72842105,7.88210526 Z" id="Path"></path>
                <path d="M9.70105263,10.0042105 C9.70105263,9.83679275 9.56531251,9.70105263 9.39789474,9.70105263 L2.72842105,9.70105263 C2.56100332,9.70105263 2.42526316,9.83679275 2.42526316,10.0042105 C2.42526316,10.1716283 2.56100332,10.3073684 2.72842105,10.3073684 L9.39789474,10.3073684 C9.56531251,10.3073684 9.70105263,10.1716283 9.70105263,10.0042105 Z" id="Path"></path>
            </g>
        </g>
    </g>
</svg>