<?xml version="1.0" encoding="UTF-8"?>
<svg width="100px" height="100px" viewBox="0 0 23 14" version="1.1" xmlns="http://www.w3.org/2000/svg" xmlns:xlink="http://www.w3.org/1999/xlink">
    <!-- Generator: Sketch 54 (76480) - https://sketchapp.com -->
    <title>Group 5</title>
    <desc>Created with Sketch.</desc>
    <g id="Page-1" stroke="none" stroke-width="1" fill="none" fill-rule="evenodd">
        <g id="New-Icons" transform="translate(-58.000000, -153.000000)" fill="#24479D" fill-rule="nonzero">
            <g id="Group-5" transform="translate(58.000000, 153.000000)">
                <path d="M21.85,8.43333333 C22.4851275,8.43333333 23,7.9184608 23,7.28333333 C23,6.64820587 22.4851275,6.13333333 21.85,6.13333333 L21.4666667,6.13333333 L21.4666667,1.15 C21.4666667,0.514872538 20.9517941,0 20.3166667,0 L16.4833333,0 C15.8482059,0 15.3333333,0.514872538 15.3333333,1.15 L15.3333333,6.13333333 L14.5666667,6.13333333 L14.5666667,1.15 C14.5666667,0.514872538 14.0517941,0 13.4166667,0 L9.58333333,0 C8.94820587,0 8.43333333,0.514872538 8.43333333,1.15 L8.43333333,6.13333333 L7.66666667,6.13333333 L7.66666667,1.15 C7.66666667,0.514872538 7.15179413,0 6.51666667,0 L2.68333333,0 C2.04820587,0 1.53333333,0.514872538 1.53333333,1.15 L1.53333333,6.13333333 L1.15,6.13333333 C0.514872538,6.13333333 1.70234197e-16,6.64820587 0,7.28333333 C-1.70234197e-16,7.9184608 0.514872538,8.43333333 1.15,8.43333333 L3.06666667,8.43333333 L3.06666667,11.5 L0.383333333,11.5 C0.171624179,11.5 1.70234197e-16,11.6716242 1.70234197e-16,11.8833333 L1.70234197e-16,13.4166667 C1.70234197e-16,13.6283758 0.171624179,13.8 0.383333333,13.8 L22.6166667,13.8 C22.8283758,13.8 23,13.6283758 23,13.4166667 L23,11.8833333 C23,11.6716242 22.8283758,11.5 22.6166667,11.5 L20.3166667,11.5 L20.3166667,8.43333333 L21.85,8.43333333 Z M16.1,1.15 C16.1,0.938290846 16.2716242,0.766666667 16.4833333,0.766666667 L20.3166667,0.766666667 C20.5283758,0.766666667 20.7,0.938290846 20.7,1.15 L20.7,6.13333333 L16.1,6.13333333 L16.1,1.15 Z M9.2,1.15 C9.2,0.938290846 9.37162418,0.766666667 9.58333333,0.766666667 L13.4166667,0.766666667 C13.6283758,0.766666667 13.8,0.938290846 13.8,1.15 L13.8,6.13333333 L9.2,6.13333333 L9.2,1.15 Z M2.3,1.15 C2.3,0.938290846 2.47162418,0.766666667 2.68333333,0.766666667 L6.51666667,0.766666667 C6.72837582,0.766666667 6.9,0.938290846 6.9,1.15 L6.9,6.13333333 L2.3,6.13333333 L2.3,1.15 Z M22.2333333,12.2666667 L22.2333333,13.0333333 L0.766666667,13.0333333 L0.766666667,12.2666667 L22.2333333,12.2666667 Z M3.83333333,11.5 L3.83333333,8.43333333 L4.6,8.43333333 L4.6,11.5 L3.83333333,11.5 Z M5.36666667,11.5 L5.36666667,8.43333333 L10.35,8.43333333 L10.35,11.5 L5.36666667,11.5 Z M11.1166667,11.5 L11.1166667,8.43333333 L11.8833333,8.43333333 L11.8833333,11.5 L11.1166667,11.5 Z M12.65,11.5 L12.65,8.43333333 L18.0166667,8.43333333 L18.0166667,11.5 L12.65,11.5 Z M18.7833333,11.5 L18.7833333,8.43333333 L19.55,8.43333333 L19.55,11.5 L18.7833333,11.5 Z M1.15,7.66666667 C0.938290846,7.66666667 0.766666667,7.49504249 0.766666667,7.28333333 C0.766666667,7.07162418 0.938290846,6.9 1.15,6.9 L21.85,6.9 C22.0617092,6.9 22.2333333,7.07162418 22.2333333,7.28333333 C22.2333333,7.49504249 22.0617092,7.66666667 21.85,7.66666667 L1.15,7.66666667 Z" id="Shape"></path>
                <rect id="Rectangle" x="3.06666667" y="1.53333333" width="3.06666667" height="1"></rect>
                <rect id="Rectangle" x="9.96666667" y="1.53333333" width="3.06666667" height="1"></rect>
                <rect id="Rectangle" x="16.8666667" y="1.53333333" width="3.06666667" height="1"></rect>
            </g>
        </g>
    </g>
</svg>